<!-- Generator: Adobe Illustrator 26.0.3, SVG Export Plug-In . SVG Version: 6.00 Build 0)  -->
<svg width="14" height="14" viewBox="0 0 14 14" fill="#f2f2f2" xmlns="http://www.w3.org/2000/svg">
	<path d="M11.3,7.9c0,2.1,1.8,2.8,1.9,2.8c0,0-0.3,1-1,2c-0.6,0.8-1.2,1.7-2.1,1.7c-0.9,0-1.2-0.6-2.3-0.6
		c-1.1,0-1.4,0.5-2.3,0.6c-0.9,0-1.6-0.9-2.2-1.8c-1.2-1.7-2.1-4.9-0.9-7C3,4.6,4.1,4,5.3,4c0.9,0,1.7,0.6,2.3,0.6
		c0.5,0,1.6-0.7,2.7-0.6c0.5,0,1.7,0.2,2.5,1.4C12.7,5.3,11.3,6.2,11.3,7.9 M9.5,2.8c0.5-0.6,0.8-1.4,0.7-2.2c-0.7,0-1.5,0.5-2,1.1
		C7.8,2.1,7.4,3,7.5,3.8C8.3,3.8,9.1,3.4,9.5,2.8" fill="#f2f2f2" fill-rule="evenodd" clip-rule="evenodd" />
</svg>
